# File created by Blade
# Date/Time:  Tue Jan 27 19:38:14 2015
# Frame Rate: 120.000 fps
#------------------------------------------------------
:FULLY-SPECIFIED
:DEGREES
3751
root 3.774405 32.323775 2.230608 -2.212446 -32.292283 -2.120028
Spine 3.169087 -14.898888 -3.607003
Head 14.298500 29.833792 12.525320
LeftShoulder -14.214605 3.858680 31.390871
LeftArm -8.810893 36.499024 -107.793186
LeftForeArm 2.367771 -0.000000 19.720379
LeftHand 10.158162 0.000000 -4.377350
LeftHandThumb1 -26.253704 0.000000 33.147579
RightShoulder -32.219210 -21.851284 -22.456504
RightArm -28.433762 59.721528 66.246261
RightForeArm 36.116829 -0.000000 100.448179
RightHand 24.259470 -0.000000 -62.022768
RightHandThumb1 -24.326973 -0.000000 -32.862282
LeftUpLeg 12.851908 16.523830 -0.075091
LeftLeg 0.254916 -0.000000 -0.000000
LeftFoot -23.456747 23.555179 -25.891143
LeftToeBase 15.004207 -0.000000 -0.000000
RightUpLeg -0.062252 13.179012 6.530817
RightLeg 11.212902 -0.000000 -0.000000
RightFoot -8.268311 -3.284079 9.784889
RightToeBase 8.952953 -0.000000 -0.000000
3752
root 3.774141 32.323823 2.231473 -2.214632 -32.293464 -2.119680
Spine 3.169277 -14.896800 -3.601161
Head 14.282058 29.812887 12.524128
LeftShoulder -14.199517 3.849711 31.390267
LeftArm -8.809739 36.466832 -107.776438
LeftForeArm 2.401884 -0.000000 19.757920
LeftHand 10.110287 -0.000000 -4.293961
LeftHandThumb1 -26.253704 0.000000 33.147579
RightShoulder -32.209289 -21.839650 -22.459844
RightArm -28.444008 59.696114 66.247259
RightForeArm 36.082099 -0.000000 100.458285
RightHand 24.290006 -0.000000 -61.999765
RightHandThumb1 -24.326973 -0.000000 -32.862282
LeftUpLeg 12.855953 16.516868 -0.075642
LeftLeg 0.252353 -0.000000 -0.000000
LeftFoot -23.451992 23.545665 -25.911336
LeftToeBase 15.035560 -0.000000 -0.000000
RightUpLeg -0.057843 13.180223 6.530898
RightLeg 11.210361 -0.000000 -0.000000
RightFoot -8.279657 -3.280448 9.808710
RightToeBase 9.053847 -0.000000 -0.000000
3753
root 3.773217 32.323641 2.233420 -2.216836 -32.312767 -2.122042
Spine 3.167688 -14.886527 -3.589721
Head 14.270079 29.800048 12.526210
LeftShoulder -14.203135 3.836840 31.392571
LeftArm -8.827986 36.465247 -107.779396
LeftForeArm 2.399766 -0.000000 19.802958
LeftHand 10.113905 -0.000000 -4.252573
LeftHandThumb1 -26.253704 0.000000 33.147579
RightShoulder -32.198962 -21.849201 -22.455539
RightArm -28.359408 59.649079 66.331084
RightForeArm 35.849444 -0.000000 100.475507
RightHand 24.010179 -0.000000 -62.072800
RightHandThumb1 -24.326973 -0.000000 -32.862282
LeftUpLeg 12.860380 16.551334 -0.068421
LeftLeg 0.264809 -0.000000 -0.000000
LeftFoot -23.450232 23.546458 -25.890365
LeftToeBase 14.993770 -0.000000 -0.000000
RightUpLeg -0.052529 13.203684 6.534001
RightLeg 11.211868 -0.000000 -0.000000
RightFoot -8.274592 -3.279127 9.809759
RightToeBase 9.000996 -0.000000 -0.000000
3754
root 3.771700 32.323520 2.234293 -2.221929 -32.321263 -2.120569
Spine 3.169612 -14.874923 -3.588341
Head 14.259131 29.777298 12.538350
LeftShoulder -14.201510 3.828001 31.389674
LeftArm -8.829139 36.490745 -107.759491
LeftForeArm 2.321731 -0.000000 19.843650
LeftHand 10.068379 -0.000000 -3.838350
LeftHandThumb1 -26.253704 0.000000 33.147579
RightShoulder -32.205719 -21.861065 -22.440329
RightArm -28.314625 59.614962 66.380559
RightForeArm 35.833917 0.000000 100.479285
RightHand 24.061568 -0.000000 -62.078080
RightHandThumb1 -24.326973 -0.000000 -32.862282
LeftUpLeg 12.864979 16.530961 -0.071643
LeftLeg 0.270353 -0.000000 -0.000000
LeftFoot -23.469684 23.564656 -25.917469
LeftToeBase 15.011302 -0.000000 -0.000000
RightUpLeg -0.045209 13.203869 6.537630
RightLeg 11.211659 -0.000000 -0.000000
RightFoot -8.266926 -3.284138 9.767188
RightToeBase 8.901995 -0.000000 -0.000000
